HIERARCHY
ROOT joint_0
{
	OFFSET 0.000000 0.000000 0.000000
	CHANNELS 6 Xposition Yposition Zposition Zrotation Yrotation Xrotation 
	JOINT joint_1
	{
		OFFSET 3.886261 -0.864090 119.041016
		CHANNELS 3 Zrotation Yrotation Xrotation
		JOINT joint_2
		{
			OFFSET -8.814819 -1.400200 108.366943
			CHANNELS 3 Zrotation Yrotation Xrotation
			JOINT joint_3
			{
				OFFSET -10.127777 -1.846550 108.123047
				CHANNELS 3 Zrotation Yrotation Xrotation
				JOINT joint_4
				{
					OFFSET -0.104309 -2.852760 150.227051
					CHANNELS 3 Zrotation Yrotation Xrotation
					JOINT joint_5
					{
						OFFSET 20.206146 2.292160 92.163940
						CHANNELS 3 Zrotation Yrotation Xrotation
						End Site
						{
							OFFSET 0.000000 0.000000 0.000000
						}
					}
				}
				JOINT joint_6
				{
					OFFSET 0.345886 -34.260384 83.589966
					CHANNELS 3 Zrotation Yrotation Xrotation
					JOINT joint_7
					{
						OFFSET -3.824402 -146.174217 -19.015991
						CHANNELS 3 Zrotation Yrotation Xrotation
						JOINT joint_8
						{
							OFFSET 134.098145 -24.802032 -261.230957
							CHANNELS 3 Zrotation Yrotation Xrotation
							JOINT joint_9
							{
								OFFSET 123.899048 209.340523 59.187012
								CHANNELS 3 Zrotation Yrotation Xrotation
								End Site
								{
									OFFSET 0.000000 0.000000 0.000000
								}
							}
						}
					}
				}
				JOINT joint_10
				{
					OFFSET -0.423798 31.098438 84.831055
					CHANNELS 3 Zrotation Yrotation Xrotation
					JOINT joint_11
					{
						OFFSET 3.093201 146.891491 -12.504028
						CHANNELS 3 Zrotation Yrotation Xrotation
						JOINT joint_12
						{
							OFFSET 195.631927 -20.967743 -219.380981
							CHANNELS 3 Zrotation Yrotation Xrotation
							JOINT joint_13
							{
								OFFSET -8.651001 -247.511261 -36.616089
								CHANNELS 3 Zrotation Yrotation Xrotation
								End Site
								{
									OFFSET 0.000000 0.000000 0.000000
								}
							}
						}
					}
				}
			}
		}
	}
	JOINT joint_14
	{
		OFFSET 6.948090 -87.642914 -106.942017
		CHANNELS 3 Zrotation Yrotation Xrotation
		JOINT joint_15
		{
			OFFSET -34.394226 4.543823 -458.972961
			CHANNELS 3 Zrotation Yrotation Xrotation
			JOINT joint_16
			{
				OFFSET -17.051544 6.964645 -485.636009
				CHANNELS 3 Zrotation Yrotation Xrotation
				JOINT joint_17
				{
					OFFSET 190.520630 40.462875 -83.888000
					CHANNELS 3 Zrotation Yrotation Xrotation
					End Site
					{
						OFFSET 0.000000 0.000000 0.000000
					}
				}
			}
		}
	}
	JOINT joint_18
	{
		OFFSET 3.929901 87.535423 -107.188965
		CHANNELS 3 Zrotation Yrotation Xrotation
		JOINT joint_19
		{
			OFFSET -34.463440 -10.383845 -458.873047
			CHANNELS 3 Zrotation Yrotation Xrotation
			JOINT joint_20
			{
				OFFSET 14.641205 -11.071349 -485.637978
				CHANNELS 3 Zrotation Yrotation Xrotation
				JOINT joint_21
				{
					OFFSET 194.569275 -4.161928 -84.249998
					CHANNELS 3 Zrotation Yrotation Xrotation
					End Site
					{
						OFFSET 0.000000 0.000000 0.000000
					}
				}
			}
		}
	}
}
MOTION
Frames: 9
Frame Time: 0.016667
486.793243 -90.782684 1155.017944 -2.511335 -1.341768 0.633871 0.545017 -7.901069 -1.679329 0.763578 0.937255 0.346444 0.651176 -1.833608 -0.295017 -0.271610 3.096722 0.732095 0.000000 0.000000 0.000000 3.478721 5.505377 4.177694 5.903658 5.612237 -1.228974 -36.875197 24.091473 -66.559529 0.000000 0.000000 0.000000 -2.628149 9.380257 -4.365756 10.168186 11.254516 4.757148 29.005470 -9.291574 23.934934 0.000000 0.000000 0.000000 -2.064123 2.424462 -0.425739 -2.057004 2.953222 -0.395908 -2.163470 -2.955450 -0.323028 0.000000 0.000000 0.000000 0.790130 0.875542 -0.416992 0.610879 7.204963 0.146352 0.897300 -6.171657 0.254026 0.000000 0.000000 0.000000 
486.676117 -90.528702 1155.026978 -2.531423 -1.341360 0.626050 0.528734 -7.879711 -1.660995 0.744206 0.934534 0.342184 0.632716 -1.827463 -0.291138 -0.268192 3.081739 0.719676 0.000000 0.000000 0.000000 3.517986 5.490019 4.176502 5.904040 5.598327 -1.225224 -36.882030 24.086223 -66.556221 0.000000 0.000000 0.000000 -2.551148 9.362348 -4.404038 10.170083 11.227499 4.775825 28.993588 -9.286789 23.936038 0.000000 0.000000 0.000000 -2.056800 2.412416 -0.432900 -2.050036 2.957509 -0.394917 -2.156648 -2.953297 -0.320490 0.000000 0.000000 0.000000 0.799038 0.863542 -0.424494 0.618568 7.215404 0.148717 0.905035 -6.169377 0.257404 0.000000 0.000000 0.000000 
486.539978 -90.278275 1155.037964 -2.553181 -1.337894 0.618045 0.513538 -7.855763 -1.645049 0.726219 0.930345 0.339395 0.615493 -1.819084 -0.288106 -0.264371 3.068534 0.705367 0.000000 0.000000 0.000000 3.550841 5.471290 4.178039 5.902534 5.580658 -1.220659 -36.898257 24.078876 -66.558698 0.000000 0.000000 0.000000 -2.479909 9.340118 -4.442644 10.169349 11.196256 4.793609 28.984315 -9.283202 23.941465 0.000000 0.000000 0.000000 -2.048910 2.392752 -0.439499 -2.042287 2.967328 -0.394341 -2.149218 -2.951316 -0.317647 0.000000 0.000000 0.000000 0.808600 0.846210 -0.431254 0.626834 7.227503 0.150391 0.913377 -6.166307 0.261061 0.000000 0.000000 0.000000 
486.407074 -90.016243 1155.046997 -2.572428 -1.335967 0.610209 0.495652 -7.829590 -1.627473 0.705439 0.925693 0.336733 0.595443 -1.810675 -0.285444 -0.260773 3.056426 0.691934 0.000000 0.000000 0.000000 3.588405 5.453258 4.177926 5.901202 5.563772 -1.215083 -36.912718 24.071122 -66.558938 0.000000 0.000000 0.000000 -2.404709 9.317749 -4.481102 10.165596 11.164201 4.809299 28.975888 -9.279940 23.949100 0.000000 0.000000 0.000000 -2.041634 2.373490 -0.446852 -2.035152 2.980416 -0.394148 -2.142546 -2.951933 -0.314584 0.000000 0.000000 0.000000 0.817579 0.831764 -0.439277 0.634492 7.237351 0.152875 0.921046 -6.162411 0.264447 0.000000 0.000000 0.000000 
486.292267 -89.728111 1155.053955 -2.587221 -1.338304 0.603074 0.472460 -7.803781 -1.603288 0.678514 0.923417 0.329790 0.569889 -1.803237 -0.279603 -0.257663 3.047525 0.680243 0.000000 0.000000 0.000000 3.639623 5.438514 4.169608 5.902307 5.550434 -1.206146 -36.919673 24.063749 -66.553521 0.000000 0.000000 0.000000 -2.318775 9.297404 -4.521645 10.158049 11.132938 4.822004 28.967231 -9.276519 23.958152 0.000000 0.000000 0.000000 -2.035628 2.358463 -0.457411 -2.029644 2.997117 -0.392386 -2.137589 -2.956618 -0.311409 0.000000 0.000000 0.000000 0.825218 0.825448 -0.450672 0.640743 7.241798 0.157546 0.927131 -6.156768 0.267187 0.000000 0.000000 0.000000 
486.183929 -89.421852 1155.058960 -2.598711 -1.343178 0.596731 0.444129 -7.776624 -1.576213 0.646208 0.922299 0.322580 0.539041 -1.796829 -0.272655 -0.254394 3.040923 0.667621 0.000000 0.000000 0.000000 3.703623 5.425394 4.155352 5.904266 5.539437 -1.193950 -36.923049 24.056103 -66.544340 0.000000 0.000000 0.000000 -2.221349 9.277663 -4.564129 10.146491 11.100775 4.832592 28.958126 -9.272907 23.969254 0.000000 0.000000 0.000000 -2.030365 2.344620 -0.470181 -2.025034 3.018178 -0.390246 -2.133679 -2.964494 -0.308013 0.000000 0.000000 0.000000 0.832055 0.823982 -0.464810 0.646087 7.242392 0.163899 0.932185 -6.149797 0.269511 0.000000 0.000000 0.000000 
486.097473 -89.107498 1155.062012 -2.606613 -1.348034 0.589899 0.416001 -7.753958 -1.548144 0.614056 0.921951 0.314159 0.508512 -1.790240 -0.265065 -0.252329 3.036878 0.659876 0.000000 0.000000 0.000000 3.761037 5.414378 4.145145 5.907955 5.529150 -1.187025 -36.919885 24.049170 -66.532704 0.000000 0.000000 0.000000 -2.131528 9.260923 -4.603623 10.135651 11.072632 4.841818 28.950010 -9.269594 23.979602 0.000000 0.000000 0.000000 -2.026444 2.333301 -0.482687 -2.021774 3.037337 -0.388481 -2.131081 -2.973151 -0.305026 0.000000 0.000000 0.000000 0.837791 0.824213 -0.479021 0.650364 7.241600 0.170706 0.936144 -6.142457 0.271372 0.000000 0.000000 0.000000 
486.042877 -88.785896 1155.060059 -2.610236 -1.351175 0.581693 0.389188 -7.738334 -1.519084 0.583225 0.922078 0.304812 0.479410 -1.785659 -0.256871 -0.251919 3.038543 0.658550 0.000000 0.000000 0.000000 3.803454 5.406281 4.145067 5.913391 5.519348 -1.193318 -36.902933 24.044400 -66.513839 0.000000 0.000000 0.000000 -2.055019 9.250689 -4.636650 10.129828 11.053195 4.849427 28.943122 -9.266148 23.984630 0.000000 0.000000 0.000000 -2.023941 2.325441 -0.493308 -2.019798 3.050460 -0.388186 -2.129644 -2.981611 -0.302588 0.000000 0.000000 0.000000 0.842004 0.824290 -0.492207 0.653185 7.240177 0.177685 0.938650 -6.135425 0.272600 0.000000 0.000000 0.000000 
486.015808 -88.453186 1155.055054 -2.608933 -1.353657 0.572094 0.362564 -7.728451 -1.487490 0.552373 0.923007 0.293653 0.450610 -1.782029 -0.246777 -0.252590 3.044173 0.661376 0.000000 0.000000 0.000000 3.834143 5.400968 4.150903 5.920682 5.509998 -1.209660 -36.873341 24.041247 -66.487579 0.000000 0.000000 0.000000 -1.989054 9.245235 -4.666161 10.127544 11.040273 4.855917 28.936849 -9.262491 23.985846 0.000000 0.000000 0.000000 -2.023195 2.320829 -0.502241 -2.019432 3.059791 -0.389404 -2.129750 -2.989967 -0.300847 0.000000 0.000000 0.000000 0.844411 0.825454 -0.504682 0.654256 7.237374 0.185316 0.939381 -6.128712 0.273056 0.000000 0.000000 0.000000 
